<svg width="301" height="214" viewBox="0 0 301 214" fill="none" xmlns="http://www.w3.org/2000/svg">
<g filter="url(#filter0_d_0_41)">
<rect x="3" y="3" width="279.685" height="174.167" rx="5.82677" fill="white"/>
</g>
<g filter="url(#filter1_d_0_41)">
<path d="M3 8.82677C3 5.60873 5.60873 3 8.82677 3H276.858C280.076 3 282.685 5.60874 282.685 8.82677V21.5778H3V8.82677Z" fill="#00252E"/>
</g>
<rect x="23.9763" y="8.80556" width="58.2677" height="6.96667" rx="1.45669" fill="#E1E8EE"/>
<rect x="254.717" y="9.38611" width="9.32283" height="1.16111" rx="0.580556" fill="#D8D8D8"/>
<rect x="254.717" y="11.7083" width="9.32283" height="1.16111" rx="0.580556" fill="#D8D8D8"/>
<rect x="254.717" y="14.0306" width="9.32283" height="1.16111" rx="0.580556" fill="#D8D8D8"/>
<ellipse cx="37.9606" cy="56.9917" rx="13.9843" ry="13.9333" fill="url(#paint0_linear_0_41)"/>
<rect x="68.2598" y="46.5417" width="33.5039" height="4.64444" rx="0.874016" fill="#E1E8EE"/>
<rect x="68.2598" y="55.8306" width="116.535" height="2.32222" rx="0.874016" fill="#E1E8EE"/>
<rect x="68.2598" y="60.475" width="106.824" height="2.32222" rx="0.874016" fill="#E1E8EE"/>
<rect x="68.2598" y="65.1194" width="97.1129" height="2.32222" rx="0.874016" fill="#E1E8EE"/>
<ellipse cx="202.276" cy="56.9917" rx="3.49606" ry="3.48333" fill="#A7B9C8"/>
<ellipse cx="220.921" cy="56.9917" rx="3.49606" ry="3.48333" fill="#A7B9C8"/>
<ellipse cx="211.598" cy="56.9917" rx="3.49606" ry="3.48333" fill="#A7B9C8"/>
<ellipse cx="230.244" cy="56.9917" rx="3.49606" ry="3.48333" fill="#A7B9C8"/>
<ellipse cx="239.567" cy="56.9917" rx="3.49606" ry="3.48333" fill="#A7B9C8"/>
<ellipse cx="37.0866" cy="95.5986" rx="13.1102" ry="13.0625" fill="url(#paint1_linear_0_41)"/>
<rect x="67.3857" y="85.1486" width="33.5039" height="4.64444" rx="0.874016" fill="#E1E8EE"/>
<rect x="67.3857" y="94.4375" width="116.535" height="2.32222" rx="0.874016" fill="#E1E8EE"/>
<rect x="67.3857" y="99.0819" width="106.824" height="2.32222" rx="0.874016" fill="#E1E8EE"/>
<rect x="67.3857" y="103.726" width="97.1129" height="2.32222" rx="0.874016" fill="#E1E8EE"/>
<ellipse cx="201.402" cy="95.5986" rx="3.49606" ry="3.48333" fill="#A7B9C8"/>
<ellipse cx="220.047" cy="95.5986" rx="3.49606" ry="3.48333" fill="#A7B9C8"/>
<ellipse cx="210.724" cy="95.5986" rx="3.49606" ry="3.48333" fill="#A7B9C8"/>
<ellipse cx="37.0866" cy="137.108" rx="13.1102" ry="13.0625" fill="url(#paint2_linear_0_41)"/>
<rect x="67.3857" y="126.658" width="33.5039" height="4.64444" rx="0.874016" fill="#E1E8EE"/>
<rect x="67.3857" y="135.947" width="116.535" height="2.32222" rx="0.874016" fill="#E1E8EE"/>
<rect x="67.3857" y="140.592" width="106.824" height="2.32222" rx="0.874016" fill="#E1E8EE"/>
<rect x="67.3857" y="145.236" width="97.1129" height="2.32222" rx="0.874016" fill="#E1E8EE"/>
<ellipse cx="201.402" cy="137.108" rx="3.49606" ry="3.48333" fill="#A7B9C8"/>
<ellipse cx="220.047" cy="137.108" rx="3.49606" ry="3.48333" fill="#A7B9C8"/>
<ellipse cx="210.724" cy="137.108" rx="3.49606" ry="3.48333" fill="#A7B9C8"/>
<ellipse cx="229.37" cy="137.108" rx="3.49606" ry="3.48333" fill="#A7B9C8"/>
<g filter="url(#filter2_d_0_41)">
<path fill-rule="evenodd" clip-rule="evenodd" d="M205.772 68.35C205.772 65.6039 207.998 63.3778 210.744 63.3778H294.028C296.774 63.3778 299 65.6039 299 68.35V207.028C299 209.774 296.774 212 294.028 212H210.744C207.998 212 205.772 209.774 205.772 207.028V68.35Z" fill="white"/>
</g>
<g filter="url(#filter3_d_0_41)">
<path fill-rule="evenodd" clip-rule="evenodd" d="M205.772 68.35C205.772 65.6039 207.998 63.3778 210.744 63.3778H294.028C296.774 63.3778 299 65.6039 299 68.35V79.2308H205.772V68.35Z" fill="#00252E"/>
</g>
<rect x="215.133" y="68.8273" width="30.2992" height="5.94489" rx="1.24304" fill="#E1E8EE"/>
<rect x="281.1" y="69.3227" width="7.95549" height="0.990815" rx="0.495407" fill="#D8D8D8"/>
<rect x="281.1" y="71.3043" width="7.95549" height="0.990815" rx="0.495407" fill="#D8D8D8"/>
<rect x="281.1" y="73.2859" width="7.95549" height="0.990815" rx="0.495407" fill="#D8D8D8"/>
<ellipse cx="219.465" cy="99.0819" rx="4.37008" ry="4.35417" fill="url(#paint3_linear_0_41)"/>
<rect x="228.496" y="95.5986" width="16.752" height="1.54815" rx="0.267918" fill="#E1E8EE"/>
<rect x="228.496" y="98.6949" width="58.2677" height="0.774074" rx="0.267918" fill="#E1E8EE"/>
<rect x="228.496" y="100.243" width="53.4121" height="0.774074" rx="0.267918" fill="#E1E8EE"/>
<rect x="228.496" y="101.791" width="48.5564" height="0.774074" rx="0.267918" fill="#E1E8EE"/>
<ellipse cx="219.465" cy="139.14" rx="4.37008" ry="4.35417" fill="url(#paint4_linear_0_41)"/>
<rect x="228.496" y="135.657" width="16.752" height="1.54815" rx="0.267918" fill="#E1E8EE"/>
<rect x="228.496" y="138.753" width="58.2677" height="0.774074" rx="0.267918" fill="#E1E8EE"/>
<rect x="228.496" y="140.301" width="53.4121" height="0.774074" rx="0.267918" fill="#E1E8EE"/>
<rect x="228.496" y="141.85" width="48.5564" height="0.774074" rx="0.267918" fill="#E1E8EE"/>
<rect x="228.496" y="108.951" width="16.752" height="1.54815" rx="0.267918" fill="#E1E8EE"/>
<rect x="228.496" y="112.048" width="58.2677" height="0.774074" rx="0.267918" fill="#E1E8EE"/>
<rect x="228.496" y="113.596" width="53.4121" height="0.774074" rx="0.267918" fill="#E1E8EE"/>
<rect x="228.496" y="115.144" width="48.5564" height="0.774074" rx="0.267918" fill="#E1E8EE"/>
<ellipse cx="219.465" cy="112.435" rx="4.37008" ry="4.35417" fill="url(#paint5_linear_0_41)"/>
<rect x="228.496" y="149.01" width="16.752" height="1.54815" rx="0.267918" fill="#E1E8EE"/>
<rect x="228.496" y="152.106" width="58.2677" height="0.774074" rx="0.267918" fill="#E1E8EE"/>
<rect x="228.496" y="153.654" width="53.4121" height="0.774074" rx="0.267918" fill="#E1E8EE"/>
<rect x="228.496" y="155.202" width="48.5564" height="0.774074" rx="0.267918" fill="#E1E8EE"/>
<ellipse cx="219.465" cy="152.493" rx="4.37008" ry="4.35417" fill="url(#paint6_linear_0_41)"/>
<rect x="228.496" y="122.304" width="16.752" height="1.54815" rx="0.267918" fill="#E1E8EE"/>
<rect x="228.496" y="125.4" width="58.2677" height="0.774074" rx="0.267918" fill="#E1E8EE"/>
<rect x="228.496" y="126.949" width="53.4121" height="0.774074" rx="0.267918" fill="#E1E8EE"/>
<rect x="228.496" y="128.497" width="48.5564" height="0.774074" rx="0.267918" fill="#E1E8EE"/>
<ellipse cx="219.465" cy="125.787" rx="4.37008" ry="4.35417" fill="url(#paint7_linear_0_41)"/>
<rect x="228.496" y="162.363" width="16.752" height="1.54815" rx="0.267918" fill="#E1E8EE"/>
<rect x="228.496" y="165.459" width="58.2677" height="0.774074" rx="0.267918" fill="#E1E8EE"/>
<rect x="228.496" y="167.007" width="53.4121" height="0.774074" rx="0.267918" fill="#E1E8EE"/>
<rect x="228.496" y="168.555" width="48.5564" height="0.774074" rx="0.267918" fill="#E1E8EE"/>
<ellipse cx="219.465" cy="165.846" rx="4.37008" ry="4.35417" fill="url(#paint8_linear_0_41)"/>
<ellipse cx="219.465" cy="179.199" rx="4.37008" ry="4.35417" fill="url(#paint9_linear_0_41)"/>
<rect x="228.496" y="175.715" width="16.752" height="1.54815" rx="0.267918" fill="#E1E8EE"/>
<rect x="228.496" y="178.812" width="58.2677" height="0.774074" rx="0.267918" fill="#E1E8EE"/>
<rect x="228.496" y="180.36" width="53.4121" height="0.774074" rx="0.267918" fill="#E1E8EE"/>
<rect x="228.496" y="181.908" width="48.5564" height="0.774074" rx="0.267918" fill="#E1E8EE"/>
<rect x="228.496" y="189.068" width="16.752" height="1.54815" rx="0.267918" fill="#E1E8EE"/>
<rect x="228.496" y="192.164" width="58.2677" height="0.774074" rx="0.267918" fill="#E1E8EE"/>
<rect x="228.496" y="193.712" width="53.4121" height="0.774074" rx="0.267918" fill="#E1E8EE"/>
<rect x="228.496" y="195.261" width="48.5564" height="0.774074" rx="0.267918" fill="#E1E8EE"/>
<ellipse cx="219.465" cy="192.551" rx="4.37008" ry="4.35417" fill="url(#paint10_linear_0_41)"/>
<defs>
<filter id="filter0_d_0_41" x="0" y="0" width="285.685" height="180.167" filterUnits="userSpaceOnUse" color-interpolation-filters="sRGB">
<feFlood flood-opacity="0" result="BackgroundImageFix"/>
<feColorMatrix in="SourceAlpha" type="matrix" values="0 0 0 0 0 0 0 0 0 0 0 0 0 0 0 0 0 0 127 0" result="hardAlpha"/>
<feOffset/>
<feGaussianBlur stdDeviation="1.5"/>
<feColorMatrix type="matrix" values="0 0 0 0 0 0 0 0 0 0.145098 0 0 0 0 0.180392 0 0 0 0.181839 0"/>
<feBlend mode="normal" in2="BackgroundImageFix" result="effect1_dropShadow_0_41"/>
<feBlend mode="normal" in="SourceGraphic" in2="effect1_dropShadow_0_41" result="shape"/>
</filter>
<filter id="filter1_d_0_41" x="0" y="0" width="285.685" height="24.5778" filterUnits="userSpaceOnUse" color-interpolation-filters="sRGB">
<feFlood flood-opacity="0" result="BackgroundImageFix"/>
<feColorMatrix in="SourceAlpha" type="matrix" values="0 0 0 0 0 0 0 0 0 0 0 0 0 0 0 0 0 0 127 0" result="hardAlpha"/>
<feOffset/>
<feGaussianBlur stdDeviation="1.5"/>
<feColorMatrix type="matrix" values="0 0 0 0 0 0 0 0 0 0.145098 0 0 0 0 0.180392 0 0 0 0.181839 0"/>
<feBlend mode="normal" in2="BackgroundImageFix" result="effect1_dropShadow_0_41"/>
<feBlend mode="normal" in="SourceGraphic" in2="effect1_dropShadow_0_41" result="shape"/>
</filter>
<filter id="filter2_d_0_41" x="203.772" y="61.3778" width="97.2283" height="152.622" filterUnits="userSpaceOnUse" color-interpolation-filters="sRGB">
<feFlood flood-opacity="0" result="BackgroundImageFix"/>
<feColorMatrix in="SourceAlpha" type="matrix" values="0 0 0 0 0 0 0 0 0 0 0 0 0 0 0 0 0 0 127 0" result="hardAlpha"/>
<feOffset/>
<feGaussianBlur stdDeviation="1"/>
<feColorMatrix type="matrix" values="0 0 0 0 0 0 0 0 0 0.145098 0 0 0 0 0.180392 0 0 0 0.181839 0"/>
<feBlend mode="normal" in2="BackgroundImageFix" result="effect1_dropShadow_0_41"/>
<feBlend mode="normal" in="SourceGraphic" in2="effect1_dropShadow_0_41" result="shape"/>
</filter>
<filter id="filter3_d_0_41" x="203.772" y="61.3778" width="97.2283" height="19.853" filterUnits="userSpaceOnUse" color-interpolation-filters="sRGB">
<feFlood flood-opacity="0" result="BackgroundImageFix"/>
<feColorMatrix in="SourceAlpha" type="matrix" values="0 0 0 0 0 0 0 0 0 0 0 0 0 0 0 0 0 0 127 0" result="hardAlpha"/>
<feOffset/>
<feGaussianBlur stdDeviation="1"/>
<feColorMatrix type="matrix" values="0 0 0 0 0 0 0 0 0 0.145098 0 0 0 0 0.180392 0 0 0 0.181839 0"/>
<feBlend mode="normal" in2="BackgroundImageFix" result="effect1_dropShadow_0_41"/>
<feBlend mode="normal" in="SourceGraphic" in2="effect1_dropShadow_0_41" result="shape"/>
</filter>
<linearGradient id="paint0_linear_0_41" x1="8.29369" y1="45.3519" x2="25.3011" y2="84.9029" gradientUnits="userSpaceOnUse">
<stop stop-color="#FAD961"/>
<stop offset="1" stop-color="#FF52C1"/>
</linearGradient>
<linearGradient id="paint1_linear_0_41" x1="23.9763" y1="82.5361" x2="23.9763" y2="108.661" gradientUnits="userSpaceOnUse">
<stop stop-color="#00C7FA"/>
<stop offset="1" stop-color="#007DFA"/>
</linearGradient>
<linearGradient id="paint2_linear_0_41" x1="16.9888" y1="132.044" x2="32.9532" y2="161.155" gradientUnits="userSpaceOnUse">
<stop stop-color="#FF52C1"/>
<stop offset="1" stop-color="#9952FF"/>
</linearGradient>
<linearGradient id="paint3_linear_0_41" x1="210.194" y1="95.4445" x2="215.508" y2="107.804" gradientUnits="userSpaceOnUse">
<stop stop-color="#FAD961"/>
<stop offset="1" stop-color="#FF52C1"/>
</linearGradient>
<linearGradient id="paint4_linear_0_41" x1="210.194" y1="135.503" x2="215.508" y2="147.863" gradientUnits="userSpaceOnUse">
<stop stop-color="#FAD961"/>
<stop offset="1" stop-color="#FF52C1"/>
</linearGradient>
<linearGradient id="paint5_linear_0_41" x1="215.094" y1="108.081" x2="215.094" y2="116.789" gradientUnits="userSpaceOnUse">
<stop stop-color="#00C7FA"/>
<stop offset="1" stop-color="#007DFA"/>
</linearGradient>
<linearGradient id="paint6_linear_0_41" x1="215.094" y1="148.139" x2="215.094" y2="156.847" gradientUnits="userSpaceOnUse">
<stop stop-color="#00C7FA"/>
<stop offset="1" stop-color="#007DFA"/>
</linearGradient>
<linearGradient id="paint7_linear_0_41" x1="212.765" y1="124.099" x2="218.087" y2="133.803" gradientUnits="userSpaceOnUse">
<stop stop-color="#FF52C1"/>
<stop offset="1" stop-color="#9952FF"/>
</linearGradient>
<linearGradient id="paint8_linear_0_41" x1="212.765" y1="164.158" x2="218.087" y2="173.861" gradientUnits="userSpaceOnUse">
<stop stop-color="#FF52C1"/>
<stop offset="1" stop-color="#9952FF"/>
</linearGradient>
<linearGradient id="paint9_linear_0_41" x1="210.194" y1="175.561" x2="215.508" y2="187.921" gradientUnits="userSpaceOnUse">
<stop stop-color="#FAD961"/>
<stop offset="1" stop-color="#FF52C1"/>
</linearGradient>
<linearGradient id="paint10_linear_0_41" x1="215.094" y1="188.197" x2="215.094" y2="196.906" gradientUnits="userSpaceOnUse">
<stop stop-color="#00C7FA"/>
<stop offset="1" stop-color="#007DFA"/>
</linearGradient>
</defs>
</svg>
